<svg width="332" height="104" viewBox="0 0 332 104" fill="none" xmlns="http://www.w3.org/2000/svg">
    <g clip-path="url(#clip0_3_20)">
        <path
            d="M53.9767 43.9874V61.1572H19.9435V43.9874H53.9767ZM-1 0H25.5534V104H-1V0ZM49.4888 0H75.8552V104H49.4888V0Z"
            fill="#1E1E1E" />
        <path
            d="M133.076 41.6981V20.1132C133.076 18.587 132.702 17.5514 131.954 17.0063C131.206 16.3522 129.897 16.0252 128.027 16.0252H96.2378V0H136.068C144.545 0 150.591 1.63522 154.206 4.90567C157.946 8.06709 159.816 12.4822 159.816 18.1509V41.6981H133.076ZM133.076 83.8868V39.0818H159.816V85.8491C159.816 91.5178 157.946 95.9874 154.206 99.2579C150.591 102.419 144.545 104 136.068 104H96.2378V87.9748H128.027C129.897 87.9748 131.206 87.6478 131.954 86.9937C132.702 86.3396 133.076 85.304 133.076 83.8868ZM86.327 0H113.254V104H86.327V0Z"
            fill="#1E1E1E" />
        <path
            d="M307.504 0H332V104H308.065L282.072 41.8616V104H257.576V0H281.885L307.504 61.9748V0Z"
            fill="#1E1E1E" />
        <path d="M173 0H245V104H173V0Z" fill="#1E1E1E" />
        <path d="M177 0H249V52H177V0Z" fill="#1E1E1E" />
        <path d="M169 52H241V104H169V52Z" fill="#1E1E1E" />
    </g>
    <defs>
        <clipPath id="clip0_3_20">
            <rect width="332" height="104" fill="white" />
        </clipPath>
    </defs>
</svg>
    